<?xml version="1.0" encoding="UTF-8" standalone="no"?>
<!DOCTYPE svg PUBLIC "-//W3C//DTD SVG 1.1//EN" "http://www.w3.org/Graphics/SVG/1.1/DTD/svg11.dtd">
<svg width="100%" height="100%" viewBox="0 0 1155 945" version="1.1" xmlns="http://www.w3.org/2000/svg" xmlns:xlink="http://www.w3.org/1999/xlink" xml:space="preserve" xmlns:serif="http://www.serif.com/" style="fill-rule:evenodd;clip-rule:evenodd;stroke-linejoin:round;stroke-miterlimit:2;">
    <g transform="matrix(1,0,0,1,-1364,0)">
        <g id="Koinos-Mark-Light" serif:id="Koinos Mark Light" transform="matrix(1.53284,0,0,1.25413,741.258,-49.5913)">
            <rect x="406.524" y="39.542" width="753.197" height="753.197" style="fill:none;"/>
            <g transform="matrix(1.16429,0,0,1.42303,154.406,-4545.7)">
                <path d="M345.135,3373.44L540,3260.93L734.865,3373.44C735.406,3373.75 735.74,3374.33 735.74,3374.95L735.74,3598.95C735.74,3599.58 735.406,3600.15 734.865,3600.47L540.875,3712.47L540.85,3712.48L540.824,3712.49L540.798,3712.51L540.746,3712.53L540.72,3712.55L540.693,3712.56L540.667,3712.57L540.532,3712.62L540.504,3712.63L540.477,3712.64L540.449,3712.64L540.422,3712.65L540.394,3712.66L540.366,3712.66L540.338,3712.67L540.31,3712.67L540.282,3712.68L540.254,3712.68L540.226,3712.69L540.165,3712.69L540.138,3712.7L539.858,3712.7L539.83,3712.69L539.774,3712.69L539.746,3712.68L539.718,3712.68L539.69,3712.67L539.662,3712.67L539.634,3712.66L539.606,3712.66L539.578,3712.65L539.551,3712.64L539.523,3712.64L539.496,3712.63L539.468,3712.62L539.333,3712.57L539.307,3712.56L539.28,3712.55L539.254,3712.53L539.202,3712.51L539.176,3712.49L539.15,3712.48L539.125,3712.47L345.135,3600.47C344.594,3600.15 344.26,3599.58 344.26,3598.95L344.26,3374.95C344.26,3374.33 344.594,3373.75 345.135,3373.44ZM347.76,3597.94L538.25,3707.92L538.25,3583.96L455.987,3536.47C455.445,3536.15 455.112,3535.58 455.112,3534.95L455.112,3439.96L347.76,3377.98L347.76,3597.94ZM624.888,3439.96L624.888,3535.96L541.75,3583.96L541.75,3707.92L732.24,3597.94L732.24,3377.98L624.888,3439.96ZM458.612,3533.94L538.25,3579.92L538.25,3487.96L458.612,3441.98L458.612,3533.94ZM621.388,3442.63L541.75,3488.61L541.75,3579.92L621.388,3533.94L621.388,3442.63ZM460.362,3438.95L540,3484.93L619.638,3438.95L540,3392.97L460.362,3438.95ZM540,3388.93L623.138,3436.93L730.49,3374.95L540,3264.97L349.51,3374.95L456.862,3436.93L540,3388.93Z" style="fill:none;stroke:white;stroke-width:8.4px;"/>
            </g>
        </g>
    </g>
</svg>
